# xmcd
#
# Track frame offsets: 
#        150
#        21190
#        35047
#        47990
#        65698
#        83136
#        115166
#        133475
#        151108
#        166138
#        186750
#        200113
#        212542
#        226024
#        243477
#        263227
#        289969
#        306277
#
# Disc length: 4277 seconds
#
# Revision: 0
# Processed by: cddbd v1.5.2PL0 Copyright (c) Steve Scherf et al.
# Submitted via: ExactAudioCopy v0.99pb4
#
DISCID=0910b312
DTITLE=Various Artist - 1000 Klassiekers Vol. 7 - CD 4
DYEAR=2015
DGENRE=Easy Listening
TTITLE0=Paul Simon - You Can Call Me Al
TTITLE1=The Rembrandts - I'll Be There For You (Theme From Friends)
TTITLE2=Meja - All 'bout The Money
TTITLE3=Bangles - Eternal Flame
TTITLE4=Ryan Paris - Dolce Vita
TTITLE5=Sugarhill Gang - Rapper's Delight
TTITLE6=Chaka Khan - I'm Every Woman
TTITLE7=Chicago - If You Leave Me Now
TTITLE8=Gilbert O'Sullivan - Nothing Rhymed
TTITLE9=Volumia! - Afscheid
TTITLE10=Willy Sommers - Zeven Anjers, Zeven Rozen
TTITLE11=Bob Dylan - Blowin' In The Wind
TTITLE12=John Denver - Annie's Song
TTITLE13=Cock Robin - The Promise You Made
TTITLE14=Christopher Cross - Ride Like The Wind
TTITLE15=10CC - I'm Not In Love
TTITLE16=Françoise Hardy - La Maison Où J'Ai Grandi
TTITLE17=Petula Clark - Downtown
EXTD=
EXTT0=
EXTT1=
EXTT2=
EXTT3=
EXTT4=
EXTT5=
EXTT6=
EXTT7=
EXTT8=
EXTT9=
EXTT10=
EXTT11=
EXTT12=
EXTT13=
EXTT14=
EXTT15=
EXTT16=
EXTT17=
PLAYORDER=
